<?xml version="1.0" standalone="no"?>
<!DOCTYPE svg PUBLIC "-//W3C//DTD SVG 20010904//EN"
 "http://www.w3.org/TR/2001/REC-SVG-20010904/DTD/svg10.dtd">
<svg version="1.0" xmlns="http://www.w3.org/2000/svg"
 width="700.000000pt" height="700.000000pt" viewBox="0 0 700.000000 700.000000"
 preserveAspectRatio="xMidYMid meet">
<metadata>
Created by potrace 1.11, written by Peter Selinger 2001-2013
</metadata>
<g transform="translate(0.000000,700.000000) scale(0.100000,-0.100000)"
fill="#000000" stroke="none">
<path d="M1649 6106 c-2 -2 -26 -7 -53 -10 -26 -4 -81 -18 -122 -32 -311 -104
-543 -387 -589 -718 -6 -41 -6 -2460 0 -2509 16 -142 100 -339 188 -444 146
-173 328 -277 557 -318 19 -4 233 -7 475 -7 242 0 445 -4 450 -8 6 -6 10 -213
9 -589 0 -414 3 -578 10 -572 12 9 337 272 371 299 11 10 77 62 145 117 69 55
127 102 130 105 3 3 39 32 80 65 41 33 77 62 80 65 3 3 59 48 125 101 66 53
209 168 318 256 l198 160 639 1 c528 0 712 4 770 17 205 46 424 194 535 361
69 104 128 245 141 337 2 15 6 42 9 60 9 64 5 2454 -5 2524 -43 308 -276 591
-569 692 -152 52 -58 50 -2042 51 -1015 0 -1847 -2 -1850 -4z m3714 -565 c79
-31 157 -109 188 -188 l22 -58 0 -1200 c0 -896 -3 -1211 -11 -1242 -27 -93
-125 -195 -215 -224 -33 -10 -200 -13 -777 -15 -404 -1 -738 -2 -742 -3 -3 -1
-46 -34 -95 -74 -49 -39 -106 -85 -127 -102 -22 -16 -44 -34 -50 -40 -6 -5
-56 -46 -111 -90 -55 -44 -102 -82 -105 -85 -3 -3 -39 -32 -80 -65 -41 -33
-80 -64 -86 -70 -30 -26 -55 -45 -59 -45 -3 0 -6 129 -7 287 l-3 287 -710 1
-710 0 -67 33 c-81 39 -139 101 -169 181 l-22 56 0 1205 0 1205 22 58 c40 103
143 186 252 205 23 4 843 7 1823 6 l1781 -1 58 -22z"/>
<path d="M2307 4399 c-90 -20 -175 -89 -218 -177 -34 -69 -33 -197 1 -267 34
-69 79 -115 147 -150 50 -25 69 -29 138 -30 66 0 90 5 135 26 117 56 182 157
185 289 5 197 -190 352 -388 309z"/>
<path d="M3403 4391 c-273 -92 -297 -455 -39 -589 43 -22 64 -26 136 -26 88 0
130 14 203 68 39 28 92 112 105 165 59 241 -174 460 -405 382z"/>
<path d="M4555 4400 c-207 -51 -310 -271 -215 -460 25 -49 86 -107 145 -138
42 -22 63 -26 135 -26 74 0 93 4 142 28 195 98 236 349 83 509 -67 71 -199
110 -290 87z"/>
</g>
</svg>
